<?xml version="1.0" encoding="UTF-8"?>
<svg width="32px" height="32px" viewBox="0 0 32 32" version="1.1" xmlns="http://www.w3.org/2000/svg" xmlns:xlink="http://www.w3.org/1999/xlink">
    <!-- Generator: Sketch 50.2 (55047) - http://www.bohemiancoding.com/sketch -->
    <title>ic-dribbble</title>
    <desc>Created with Sketch.</desc>
    <defs>
        <path d="M16,26.6666667 C10.1089627,26.6666667 5.33333333,21.8910373 5.33333333,16 C5.33333333,10.1089627 10.1089627,5.33333333 16,5.33333333 C21.8910373,5.33333333 26.6666667,10.1089627 26.6666667,16 C26.6666667,21.8910373 21.8910373,26.6666667 16,26.6666667 Z M16.0000434,8 C11.5888037,8 8,11.5887169 8,15.9999566 C8,20.4111963 11.5888037,24 16.0000434,24 C20.4112831,24 24,20.4111963 24,15.9999566 C24,11.5887169 20.4112831,8 16.0000434,8 Z M19.8179382,21.6749733 C19.7478827,21.259328 19.3842364,19.2589699 18.4904428,16.8029472 C20.63178,16.4602221 22.513035,17.0213606 22.7468138,17.0950622 C22.4421982,18.9964571 21.3509123,20.6384643 19.8179382,21.6749733 Z M16.0000434,22.8436935 C14.4203656,22.8436935 12.9643049,22.3046915 11.8057414,21.4011752 C11.9286641,21.149774 13.3122386,18.4769873 17.1664198,17.1338661 C17.1814379,17.1287444 17.196456,17.1237962 17.2114741,17.1187612 C18.1708091,19.6116781 18.5676167,21.701103 18.669271,22.3006115 C17.8487448,22.6500209 16.9466174,22.8436935 16.0000434,22.8436935 Z M9.16672364,16.0103738 C9.16672364,15.9404919 9.16811259,15.8710441 9.17028284,15.8015962 C9.46925577,15.8077597 12.7806154,15.8503833 16.1930216,14.8291529 C16.388604,15.2119841 16.5754187,15.6006315 16.7470417,15.9888449 C16.6565859,16.0142802 16.5668246,16.0413649 16.4776709,16.0701857 C12.9535405,17.2093038 11.0781885,20.3143166 10.9234066,20.5793469 C9.8320339,19.3679162 9.16672364,17.7654942 9.16672364,16.0103738 Z M13.0948668,9.82647807 C13.2749972,10.0734519 14.4961505,11.7656353 15.6283239,13.7783203 C12.4319872,14.6271465 9.61674561,14.6149063 9.31108832,14.6108263 C9.75416551,12.490497 11.1831415,10.7280846 13.0948668,9.82647807 Z M16.0000434,9.17714081 C17.7363261,9.17714081 19.3230355,9.8284747 20.5296917,10.8990131 C20.406769,11.0741084 19.3782466,12.4566412 16.9483536,13.3673628 C15.8286809,11.3101443 14.5875612,9.62004438 14.3986631,9.36716745 C14.9125771,9.24320306 15.4486276,9.17714081 16.0000434,9.17714081 Z M21.2893642,11.6892426 C22.2410599,12.851973 22.8173902,14.3330349 22.8324951,15.9458741 C22.6071369,15.8982155 20.347912,15.4400334 18.0742766,15.7258981 C18.0263576,15.6089653 17.9773969,15.4914248 17.927134,15.3732767 C17.7852,15.0400139 17.632762,14.7090081 17.4737265,14.3834714 C20.0003255,13.3519974 21.1453467,11.8841306 21.2893642,11.6892426 Z" id="path-1"></path>
    </defs>
    <g id="joschmi" stroke="none" stroke-width="1" fill="none" fill-rule="evenodd">
        <g id="iPhone-8" transform="translate(-108.000000, -212.000000)">
            <g id="Group-5" transform="translate(28.000000, 132.000000)">
                <g id="ic-dribbble" transform="translate(80.000000, 80.000000)">
                    <rect id="bounds" x="0" y="0" width="32" height="32"></rect>
                    <mask id="mask-2" fill="white">
                        <use xlink:href="#path-1"></use>
                    </mask>
                    <use id="Combined-Shape" fill="#FFFFFF" xlink:href="#path-1"></use>
                </g>
            </g>
        </g>
    </g>
</svg>