<?xml version="1.0" encoding="UTF-8"?>
<svg width="32px" height="32px" viewBox="0 0 32 32" version="1.1" xmlns="http://www.w3.org/2000/svg" xmlns:xlink="http://www.w3.org/1999/xlink">
    <!-- Generator: Sketch 50.2 (55047) - http://www.bohemiancoding.com/sketch -->
    <title>ic-linkedin</title>
    <desc>Created with Sketch.</desc>
    <defs>
        <path d="M16,26.6666667 C21.8910373,26.6666667 26.6666667,21.8910373 26.6666667,16 C26.6666667,10.1089627 21.8910373,5.33333333 16,5.33333333 C10.1089627,5.33333333 5.33333333,10.1089627 5.33333333,16 C5.33333333,21.8910373 10.1089627,26.6666667 16,26.6666667 Z M9.83857479,21.5476173 L12.5885781,21.5476173 L12.5885781,13.2857027 L9.83857479,13.2857027 L9.83857479,21.5476173 Z M12.7671497,10.7380806 C12.7552449,9.92855585 12.1719109,9.30950749 11.2314336,9.30950749 C10.2909563,9.30950749 9.67190793,9.92855585 9.67190793,10.7380806 C9.67190793,11.5237958 10.2671467,12.1666538 11.1957193,12.1666538 L11.207624,12.1666538 C12.1719109,12.1666538 12.7671497,11.5237958 12.7671497,10.7380806 Z M16.8504879,14.4503327 L16.8504879,13.2857027 L14.1004846,13.2857027 C14.1004846,13.2857027 14.136199,14.0595132 14.1004846,21.5476173 L16.8504879,21.5476173 L16.8504879,16.9285642 C16.8504879,16.6904687 16.8623927,16.4404684 16.9338213,16.2618967 C17.1362025,15.7738009 17.588584,15.2618955 18.3504897,15.2618955 C19.3385861,15.2618955 19.7314437,16.0118964 19.7314437,17.1309454 L19.7314437,21.5476173 L22.481447,21.5476173 L22.481447,16.8095164 C22.481447,14.2737991 21.1243025,13.0952263 19.3147766,13.0952263 C17.8707954,13.0952263 17.2127871,13.8811992 16.8504879,14.4503327 Z" id="path-1"></path>
    </defs>
    <g id="joschmi" stroke="none" stroke-width="1" fill="none" fill-rule="evenodd">
        <g id="iPhone-8" transform="translate(-68.000000, -212.000000)">
            <g id="Group-5" transform="translate(28.000000, 132.000000)">
                <g id="ic-linkedin" transform="translate(40.000000, 80.000000)">
                    <rect id="bounds" x="0" y="0" width="32" height="32"></rect>
                    <mask id="mask-2" fill="white">
                        <use xlink:href="#path-1"></use>
                    </mask>
                    <use id="shape" fill="#FFFFFF" xlink:href="#path-1"></use>
                </g>
            </g>
        </g>
    </g>
</svg>