<?xml version="1.0" encoding="UTF-8"?>
<svg width="32px" height="32px" viewBox="0 0 32 32" version="1.1" xmlns="http://www.w3.org/2000/svg" xmlns:xlink="http://www.w3.org/1999/xlink">
    <!-- Generator: Sketch 50.2 (55047) - http://www.bohemiancoding.com/sketch -->
    <title>ic-twitter</title>
    <desc>Created with Sketch.</desc>
    <defs>
        <path d="M16,26.6666667 C10.1089627,26.6666667 5.33333333,21.8910373 5.33333333,16 C5.33333333,10.1089627 10.1089627,5.33333333 16,5.33333333 C21.8910373,5.33333333 26.6666667,10.1089627 26.6666667,16 C26.6666667,21.8910373 21.8910373,26.6666667 16,26.6666667 Z M22.2552563,12.9761773 C21.8028748,13.1785585 21.3266837,13.3095111 20.8147784,13.3809397 C21.3385885,13.0714155 21.7314461,12.5714149 21.9219225,11.9880809 C21.4338267,12.2737955 20.8981118,12.4880815 20.3266825,12.5952245 C19.874301,12.1071287 19.2195384,11.8095093 18.5052518,11.8095093 C17.1242978,11.8095093 16.0052488,12.9285582 16.0052488,14.3095123 C16.0052488,14.4999887 16.0171536,14.7023699 16.0647727,14.8809415 C13.9814369,14.7737985 12.1361966,13.7857021 10.8980999,12.2618908 C10.6838139,12.6309388 10.5528614,13.0714155 10.5528614,13.523797 C10.5528614,14.3928457 10.9576237,15.1547514 11.636196,15.6071329 C11.2195288,15.5952281 10.8266712,15.4761803 10.4457184,15.2976087 C10.4457184,16.5357054 11.3623861,17.5476114 12.5052446,17.7738021 C12.2909587,17.833326 12.1242918,17.8690403 11.8981011,17.8690403 C11.743339,17.8690403 11.5885769,17.8452308 11.4338148,17.8214212 C11.7552437,18.8095176 12.6719115,19.535709 13.7671509,19.5595185 C12.910007,20.226186 11.8385772,20.6309484 10.6600043,20.6309484 C10.4576231,20.6309484 10.255242,20.6190436 10.0647655,20.595234 C11.1719097,21.2976158 12.4814351,21.714283 13.8981034,21.714283 C18.493347,21.714283 21.0171595,17.9047546 21.0171595,14.5952269 C21.0171595,14.4880839 21.0171595,14.3809409 21.0052548,14.2737979 C21.4933506,13.9285594 21.9219225,13.4880827 22.2552563,12.9761773 Z" id="path-1"></path>
    </defs>
    <g id="joschmi" stroke="none" stroke-width="1" fill="none" fill-rule="evenodd">
        <g id="iPhone-8" transform="translate(-28.000000, -212.000000)">
            <g id="Group-5" transform="translate(28.000000, 132.000000)">
                <g id="ic-twitter" transform="translate(0.000000, 80.000000)">
                    <rect id="bounds" x="0" y="0" width="32" height="32"></rect>
                    <mask id="mask-2" fill="white">
                        <use xlink:href="#path-1"></use>
                    </mask>
                    <use id="shape" fill="#FFFFFF" xlink:href="#path-1"></use>
                </g>
            </g>
        </g>
    </g>
</svg>